<?xml version="1.0"?>
<svg xmlns="http://www.w3.org/2000/svg" viewBox="0 0 64 64">
    <path d="M 15 4.015625 C 13.346 4.015625 12 5.361625 12 7.015625 L 12 10.015625 L 7 10.015625 C 5.3 10.015625 4 11.404391 4 13.025391 L 4 54.972656 C 4 56.593656 5.3 57.982422 7 57.982422 L 55 57.982422 C 56.7 57.982422 58 56.593656 58 54.972656 L 58 13.025391 C 58 11.404391 56.7 10.015625 55 10.015625 L 50 10.015625 L 50 7.015625 C 50 5.361625 48.654 4.015625 47 4.015625 C 45.346 4.015625 44 5.361625 44 7.015625 L 44 10.015625 L 34 10.015625 L 34 7.015625 C 34 5.361625 32.654 4.015625 31 4.015625 C 29.346 4.015625 28 5.361625 28 7.015625 L 28 10.015625 L 18 10.015625 L 18 7.015625 C 18 5.361625 16.654 4.015625 15 4.015625 z M 15 6.015625 C 15.551 6.015625 16 6.464625 16 7.015625 L 16 15.015625 C 16 15.566625 15.551 16.015625 15 16.015625 C 14.449 16.015625 14 15.566625 14 15.015625 L 14 7.015625 C 14 6.464625 14.449 6.015625 15 6.015625 z M 31 6.015625 C 31.551 6.015625 32 6.464625 32 7.015625 L 32 15.015625 C 32 15.566625 31.551 16.015625 31 16.015625 C 30.449 16.015625 30 15.566625 30 15.015625 L 30 7.015625 C 30 6.464625 30.449 6.015625 31 6.015625 z M 47 6.015625 C 47.551 6.015625 48 6.464625 48 7.015625 L 48 15.015625 C 48 15.566625 47.551 16.015625 47 16.015625 C 46.449 16.015625 46 15.566625 46 15.015625 L 46 7.015625 C 46 6.464625 46.449 6.015625 47 6.015625 z M 7 11.984375 L 12 11.984375 L 12 15.015625 C 12 16.669625 13.346 18.015625 15 18.015625 C 16.654 18.015625 18 16.669625 18 15.015625 L 18 11.984375 L 28 11.984375 L 28 15.015625 C 28 16.669625 29.346 18.015625 31 18.015625 C 32.654 18.015625 34 16.669625 34 15.015625 L 34 11.984375 L 44 11.984375 L 44 15.015625 C 44 16.669625 45.346 18.015625 47 18.015625 C 48.654 18.015625 50 16.669625 50 15.015625 L 50 11.984375 L 55 11.984375 C 55.6 11.984375 56 12.446391 56 13.025391 L 56 20.015625 C 55.4 20.015625 55 20.462625 55 21.015625 L 55 23.015625 C 55 23.568625 55.4 24.015625 56 24.015625 L 56 54.972656 C 56 55.551656 55.6 56.015625 55 56.015625 L 7 56.015625 C 6.4 56.015625 6 55.551656 6 54.972656 L 6 24.015625 C 6.6 24.015625 7 23.568625 7 23.015625 L 7 21.015625 C 7 20.462625 6.6 20.015625 6 20.015625 L 6 13.025391 C 6 12.446391 6.4 11.984375 7 11.984375 z M 11 20.015625 C 10.4 20.015625 10 20.462625 10 21.015625 L 10 23.015625 C 10 23.568625 10.4 24.015625 11 24.015625 C 11.6 24.015625 12 23.568625 12 23.015625 L 12 21.015625 C 12 20.462625 11.6 20.015625 11 20.015625 z M 16 20.015625 C 15.4 20.015625 15 20.462625 15 21.015625 L 15 23.015625 C 15 23.568625 15.4 24.015625 16 24.015625 C 16.6 24.015625 17 23.568625 17 23.015625 L 17 21.015625 C 17 20.462625 16.6 20.015625 16 20.015625 z M 21 20.015625 C 20.4 20.015625 20 20.462625 20 21.015625 L 20 23.015625 C 20 23.568625 20.4 24.015625 21 24.015625 C 21.6 24.015625 22 23.568625 22 23.015625 L 22 21.015625 C 22 20.462625 21.6 20.015625 21 20.015625 z M 26 20.015625 C 25.4 20.015625 25 20.462625 25 21.015625 L 25 23.015625 C 25 23.568625 25.4 24.015625 26 24.015625 C 26.6 24.015625 27 23.568625 27 23.015625 L 27 21.015625 C 27 20.462625 26.6 20.015625 26 20.015625 z M 31 20.015625 C 30.4 20.015625 30 20.462625 30 21.015625 L 30 23.015625 C 30 23.568625 30.4 24.015625 31 24.015625 C 31.6 24.015625 32 23.568625 32 23.015625 L 32 21.015625 C 32 20.462625 31.6 20.015625 31 20.015625 z M 36 20.015625 C 35.4 20.015625 35 20.462625 35 21.015625 L 35 23.015625 C 35 23.568625 35.4 24.015625 36 24.015625 C 36.6 24.015625 37 23.568625 37 23.015625 L 37 21.015625 C 37 20.462625 36.6 20.015625 36 20.015625 z M 41 20.015625 C 40.4 20.015625 40 20.462625 40 21.015625 L 40 23.015625 C 40 23.568625 40.4 24.015625 41 24.015625 C 41.6 24.015625 42 23.568625 42 23.015625 L 42 21.015625 C 42 20.462625 41.6 20.015625 41 20.015625 z M 46 20.015625 C 45.4 20.015625 45 20.462625 45 21.015625 L 45 23.015625 C 45 23.568625 45.4 24.015625 46 24.015625 C 46.6 24.015625 47 23.568625 47 23.015625 L 47 21.015625 C 47 20.462625 46.6 20.015625 46 20.015625 z M 51 20.015625 C 50.4 20.015625 50 20.462625 50 21.015625 L 50 23.015625 C 50 23.568625 50.4 24.015625 51 24.015625 C 51.6 24.015625 52 23.568625 52 23.015625 L 52 21.015625 C 52 20.462625 51.6 20.015625 51 20.015625 z M 35 27 C 34.448 27 34 27.447 34 28 L 34 36 L 34 44 L 34 45 C 34 45.553 34.448 46 35 46 C 35.552 46 36 45.553 36 45 L 36 44 L 36 36 C 36 34.897 36.897 34 38 34 L 40 34 C 41.103 34 42 34.897 42 36 L 42 45 C 42 45.553 42.448 46 43 46 C 43.552 46 44 45.553 44 45 L 44 36 C 44 33.794 42.206 32 40 32 L 38 32 C 37.268 32 36.591 32.212641 36 32.556641 L 36 28 C 36 27.447 35.552 27 35 27 z M 19 28 C 18.448 28 18 28.447 18 29 C 18 29.553 18.448 30 19 30 L 24 30 L 24 45 C 24 45.553 24.448 46 25 46 C 25.552 46 26 45.553 26 45 L 26 30 L 31 30 C 31.552 30 32 29.553 32 29 C 32 28.447 31.552 28 31 28 L 19 28 z M 9 50.015625 C 8.448 50.015625 8 50.463625 8 51.015625 C 8 51.567625 8.448 52.015625 9 52.015625 L 53 52.015625 C 53.552 52.015625 54 51.567625 54 51.015625 C 54 50.463625 53.552 50.015625 53 50.015625 L 9 50.015625 z"/>
</svg>
